# AST/ASF file generated using VICON BodyLanguage
# -----------------------------------------------
:version 1.10
:name VICON
:units
  mass 1.0
  length 0.45
  angle deg
:documentation
   .ast/.asf automatically generated from VICON data using
   VICON BodyBuilder and BodyLanguage model FoxedUp or BRILLIANT.MOD
:root
   order TX TY TZ RX RY RZ
   axis XYZ
   position 0 0 0  
   orientation 0 0 0 
:bonedata
  begin
     id 1 
     name lhipjoint
     direction 0.710188 -0.616876 0.339259 
     length 2.5669 
     axis 0 0 0  XYZ
  end
  begin
     id 2 
     name lfemur
     direction 0.34202 -0.939693 0  
     length 7.12796  
     axis 0 0 20  XYZ
    dof rx ry rz
    limits (-160.0 20.0)
           (-70.0 70.0)
           (-60.0 70.0)
  end
  begin
     id 3 
     name ltibia
     direction 0.34202 -0.939693 0   
     length 7.58108   
     axis 0 0 20   XYZ
    dof rx
    limits (-10.0 170.0)
  end
  begin
     id 4 
     name lfoot
     direction 0.0669471 -0.183936 0.980656   
     length 2.17365   
     axis -90 7.62852e-016 20   XYZ
    dof rx rz
    limits (-45.0 90.0)
           (-70.0 20.0)
  end
  begin
     id 5 
     name ltoes
     direction 1.53508e-011 -4.21705e-011 1   
     length 1.09427   
     axis -90 7.62852e-016 20   XYZ
    dof rx
    limits (-90.0 20.0)
  end
  begin
     id 6 
     name rhipjoint
     direction -0.700191 -0.625589 0.34405   
     length 2.53115  
     axis 0 0 0  XYZ 
  end
  begin
     id 7 
     name rfemur
     direction -0.34202 -0.939693 0   
     length 7.33006   
     axis 0 0 -20   XYZ
    dof rx ry rz
    limits (-160.0 20.0)
           (-70.0 70.0)
           (-70.0 60.0)
  end
  begin
     id 8 
     name rtibia
     direction -0.34202 -0.939693 0   
     length 7.64926   
     axis 0 0 -20   XYZ
    dof rx
    limits (-10.0 170.0)
 end
 begin
     id 9 
     name rfoot
     direction -0.0688927 -0.189281 0.979503   
     length 2.20493  
     axis -90 -7.62852e-016 -20   XYZ
    dof rx rz
    limits (-45.0 90.0)
           (-20.0 70.0)
  end
  begin
     id 10 
     name rtoes
     direction -1.53567e-011 -4.21933e-011 1   
     length 1.10919   
     axis -90 -7.62852e-016 -20   XYZ
    dof rx
    limits (-90.0 20.0)
  end
  begin
     id 11 
     name lowerback
     direction -0.0167868 0.989873 -0.140959   
     length 2.14596   
     axis 0 0 0   XYZ
    dof rx ry rz
    limits (-20.0 45.0)
           (-30.0 30.0)
           (-30.0 30.0)
  end
  begin
     id 12 
     name upperback
     direction 0.0129109 0.998033 0.0613525   
     length 2.10457   
     axis 0 0 0   XYZ
    dof rx ry rz
    limits (-20.0 45.0)
           (-30.0 30.0)
           (-30.0 30.0)
  end
  begin
     id 13 
     name thorax
     direction 0.0177047 0.991119 0.131797   
     length 2.17652   
     axis 0 0 0   XYZ
    dof rx ry rz
    limits (-20.0 45.0)
           (-30.0 30.0)
           (-30.0 30.0)
  end
  begin
     id 14 
     name lowerneck
     direction -0.0336893 0.997548 0.0613464   
     length 1.8912   
     axis 0 0 0   XYZ
    dof rx ry rz
    limits (-20.0 45.0)
           (-30.0 30.0)
           (-30.0 30.0)
  end
  begin
     id 15 
     name upperneck
     direction 0.0435909 0.997179 -0.0611028   
     length 1.8829   
     axis 0 0 0   XYZ
    dof rx ry rz
    limits (-20.0 45.0)
           (-30.0 30.0)
           (-30.0 30.0)
  end
  begin
     id 16
     name head
     direction 0.0175076 0.999444 -0.0283782  
     length 1.93197  
     axis 0 0 0   XYZ
    dof rx ry rz
    limits (-20.0 45.0)
           (-30.0 30.0)
           (-30.0 30.0)
  end
  begin
     id 17 
     name lclavicle
     direction 0.919164 0.389875 0.0559876  
     length 3.60004  
     axis 0 0 0   XYZ
    dof ry rz
    limits (-20.0 10.0)
           (0.0 20.0)
  end
  begin
     id 18 
     name lhumerus
     direction 1 -4.48958e-011 6.89191e-027   
     length 5.43301   
     axis 180 -30 -90   XYZ
    dof rx ry rz
    limits (-60.0 90.0)
           (-90.0 90.0)
           (-90.0 90.0)
  end
  begin
     id 19
     name lradius
     direction 1 -4.4897e-011 3.24727e-027   
     length 3.15936   
     axis 180 -30 -90   XYZ
    dof rx
    limits (-10.0 170.0)
  end
  begin
     id 20
     name lwrist
     direction 1 -4.4897e-011 9.00228e-027   
     length 1.57968   
     axis -6.29373e-015 90 90   XYZ
    dof ry
    limits (-180.0 0.0)
 end
  begin
     id 21 
     name lhand
     direction 1 -4.48968e-011 1.80042e-026   
     length 0.712827   
     axis -1.14882e-014 90 90   XYZ
    dof rx rz
    limits (-90.0 90.0)
           (-45.0 45.0)
  end
  begin
     id 22 
     name lfingers
     direction 1 -4.49019e-011 3.60267e-026   
     length 0.574699   
     axis -2.29769e-014 90 90   XYZ
    dof rx
    limits (0.0 90.0)
  end
  begin
     id 23
     name lthumb
     direction 0.707107 -6.3498e-011 0.707107   
     length 0.825157   
     axis -90 45 5.37419e-014   XYZ
    dof rx rz
    limits (-45.0 45.0)
           (-45.0 45.0)
  end
  begin
     id 24 
     name rclavicle
     direction -0.890334 0.455305 -0.00132111   
     length 3.51494  
     axis 0 0 0   XYZ 
    dof ry rz
    limits (-10.0 20.0)
           (-20.0 0.0)
  end
  begin
     id 25 
     name rhumerus
     direction -1 -4.48967e-011 5.07175e-028  
     length 5.34194   
     axis 180 30 90   XYZ
    dof rx ry rz
    limits (-90.0 60.0)
           (-90.0 90.0)
           (-90.0 90.0)
  end
  begin
     id 26 
     name rradius
     direction -1 -4.48955e-011 3.30467e-027   
     length 3.19351   
     axis 180 30 90   XYZ
    dof rx
    limits (-10.0 170.0)
  end
  begin
     id 27 
     name rwrist
     direction -1 -4.48968e-011 9.00208e-027   
     length 1.59676   
     axis -6.29373e-015 -90 -90   XYZ
    dof ry
    limits (-180.0 0.0)
  end
  begin
     id 28
     name rhand
     direction -1 -4.49e-011 1.80099e-026   
     length 0.743862   
     axis -1.14882e-014 -90 -90   XYZ
    dof rx rz
    limits (-90.0 90.0)
           (-45.0 45.0)
  end
  begin
     id 29
     name rfingers
     direction -1 -4.49009e-011 3.6023e-026   
     length 0.599721   
     axis -2.29769e-014 -90 -90   XYZ
    dof rx
    limits (0.0 90.0)
  end
  begin
     id 30
     name rthumb
     direction -0.707107 -6.35025e-011 0.707107   
     length 0.861083   
     axis -90 -45 -5.37419e-014   XYZ
    dof rx rz
    limits (-45.0 45.0)
           (-45.0 45.0)
  end
:hierarchy
  begin
    root lhipjoint rhipjoint lowerback
    lhipjoint lfemur
    lfemur ltibia
    ltibia lfoot
    lfoot ltoes
    rhipjoint rfemur
    rfemur rtibia
    rtibia rfoot
    rfoot rtoes
    lowerback upperback
    upperback thorax
    thorax lowerneck lclavicle rclavicle
    lowerneck upperneck
    upperneck head
    lclavicle lhumerus
    lhumerus lradius
    lradius lwrist
    lwrist lhand lthumb
    lhand lfingers
    rclavicle rhumerus
    rhumerus rradius
    rradius rwrist
    rwrist rhand rthumb
    rhand rfingers
  end

#!OML:ASF H:\Martial Arts Walks\Project 1\Capture day 1\Session 1\male.ASF
:FULLY-SPECIFIED
:DEGREES
77
root -7.71922 14.7522 -36.018 2.20798 56.697 1.31199
lowerback 15.7602 -5.09889 -7.98567
upperback -1.20579 -7.86556 4.52598
thorax -8.39838 -3.3256 11.2173
lowerneck 9.40694 -17.7749 -17.7619
upperneck 2.97359 -25.9856 18.7479
head 4.19194 -13.2933 7.17136
rclavicle 8.91549e-014 1.11319e-014
rhumerus -33.3072 13.9059 -76.6414
rradius 46.0349
rwrist -3.00656
rhand -13.0723 -39.44
rfingers 7.12502
rthumb 13.0235 -69.0134
lclavicle 8.91549e-014 1.11319e-014
lhumerus -25.8336 2.73265 83.5868
lradius 34.3311
lwrist -14.9099
lhand -27.4728 11.4024
lfingers 7.12502
lthumb -0.876757 41.3803
rfemur -43.1757 7.39 -5.72755
rtibia 56.8755
rfoot -20.8731 23.3098
rtoes -7.03441
lfemur -12.2676 17.602 -1.4617
ltibia 58.9182
lfoot -29.9522 19.6154
ltoes -25.9118
78
root -7.71581 14.7522 -36.0191 2.18418 56.669 1.26554
lowerback 15.7433 -5.06346 -8.00054
upperback -1.20817 -7.82003 4.52835
thorax -8.40015 -3.3025 11.2188
lowerneck 9.45394 -17.7857 -17.7463
upperneck 2.93212 -26.0006 18.7625
head 4.1749 -13.3037 7.17818
rclavicle 5.58585e-014 0
rhumerus -33.2982 13.8838 -76.6204
rradius 46.0725
rwrist -3.02692
rhand -13.1754 -39.4336
rfingers 7.12502
rthumb 12.9241 -69.0134
lclavicle 5.58585e-014 0
lhumerus -25.8588 2.96249 83.4933
lradius 33.9958
lwrist -15.1469
lhand -27.4325 11.2407
lfingers 7.12502
lthumb -0.837797 41.2188
rfemur -43.1867 7.39095 -5.70445
rtibia 56.8527
rfoot -20.9182 23.2553
rtoes -7.2615
lfemur -12.3086 17.6154 -1.45603
ltibia 59.0256
lfoot -29.9886 19.7116
ltoes -25.5201
79
root -7.7123 14.7518 -36.0199 2.18599 56.6575 1.25512
lowerback 15.7223 -5.05025 -8.01874
upperback -1.19127 -7.80497 4.51818
thorax -8.37227 -3.29759 11.2103
lowerneck 9.39754 -17.8143 -17.7085
upperneck 2.95166 -26.0293 18.7346
head 4.18595 -13.314 7.15494
rclavicle -3.38928e-014 1.90833e-014
rhumerus -33.2504 13.8754 -76.6268
rradius 46.0746
rwrist -2.98298
rhand -13.0516 -39.425
rfingers 7.12502
rthumb 13.0435 -68.9972
lclavicle -3.38928e-014 1.90833e-014
lhumerus -25.8725 3.18848 83.3813
lradius 33.6927
lwrist -15.2694
lhand -27.6257 11.4842
lfingers 7.12502
lthumb -1.02445 41.4615
rfemur -43.1938 7.35234 -5.70486
rtibia 56.8455
rfoot -20.7039 23.459
rtoes -6.52308
lfemur -12.318 17.6037 -1.46347
ltibia 59.0567
lfoot -30.0197 19.7017
ltoes -25.1867
80
root -7.70777 14.752 -36.0198 2.17804 56.6603 1.26148
lowerback 15.7114 -5.05151 -8.06387
upperback -1.16686 -7.81372 4.51939
thorax -8.33087 -3.30419 11.2346
lowerneck 9.4758 -17.7957 -17.7356
upperneck 2.84798 -26.0113 18.8319
head 4.15669 -13.3119 7.2005
rclavicle 8.84592e-014 1.51076e-014
rhumerus -33.193 13.9038 -76.6252
rradius 46.0608
rwrist -2.93563
rhand -13.0579 -39.3221
rfingers 7.12502
rthumb 13.0374 -68.8947
lclavicle 8.84592e-014 1.51076e-014
lhumerus -25.8834 3.52047 83.2412
lradius 33.3608
lwrist -15.501
lhand -27.5002 11.4095
lfingers 7.12502
lthumb -0.903213 41.3873
rfemur -43.1623 7.32178 -5.71418
rtibia 56.8407
rfoot -20.5061 23.654
rtoes -5.67414
lfemur -12.3021 17.5885 -1.48742
ltibia 59.0673
lfoot -29.9652 19.8179
ltoes -25.4573
81
root -7.70482 14.7515 -36.0221 2.06436 56.6441 1.09418
lowerback 15.7042 -5.05259 -8.00804
upperback -1.16946 -7.80178 4.54235
thorax -8.33637 -3.29983 11.2259
lowerneck 9.48775 -17.7857 -17.7386
upperneck 2.82557 -25.9983 18.85
head 4.14869 -13.3067 7.21013
rclavicle 2.43511e-014 1.66979e-014
rhumerus -33.1157 13.9553 -76.6277
rradius 45.9798
rwrist -2.93501
rhand -13.0819 -39.3589
rfingers 7.12502
rthumb 13.0142 -68.9329
lclavicle 2.43511e-014 1.66979e-014
lhumerus -25.96 3.75676 83.0894
lradius 33.0677
lwrist -15.6024
lhand -27.4698 11.615
lfingers 7.12502
lthumb -0.873817 41.5929
rfemur -43.1878 7.26635 -5.60147
rtibia 56.8402
rfoot -20.6547 23.5651
rtoes -6.35888
lfemur -12.3378 17.587 -1.40442
ltibia 59.0983
lfoot -29.982 19.7946
ltoes -25.4403
82
root -7.70086 14.7509 -36.0225 2.16531 56.6645 1.22698
lowerback 15.6952 -5.03611 -8.11039
upperback -1.15828 -7.80159 4.51264
thorax -8.31008 -3.29849 11.2482
lowerneck 9.4403 -17.7836 -17.796
upperneck 2.87768 -26.0071 18.9111
head 4.18969 -13.3085 7.22496
rclavicle -7.7526e-015 -1.59028e-015
rhumerus -33.111 13.8937 -76.6235
rradius 45.9266
rwrist -2.86827
rhand -13.0484 -39.4309
rfingers 7.12502
rthumb 13.0466 -69.0029
lclavicle -7.7526e-015 -1.59028e-015
lhumerus -26.0106 3.93986 82.9652
lradius 32.7841
lwrist -15.6978
lhand -27.4677 11.5629
lfingers 7.12502
lthumb -0.871842 41.5409
rfemur -43.1483 7.20967 -5.68206
rtibia 56.8484
rfoot -20.6336 23.6335
rtoes -6.17162
lfemur -12.3152 17.5463 -1.50026
ltibia 59.0959
lfoot -30.0041 19.827
ltoes -25.3756
83
root -7.69795 14.75 -36.0234 2.14432 56.6555 1.20397
lowerback 15.7077 -5.0171 -8.14042
upperback -1.15375 -7.78213 4.5188
thorax -8.31211 -3.28743 11.2706
lowerneck 9.37114 -17.7994 -17.8085
upperneck 2.94848 -26.0268 18.8668
head 4.2207 -13.3132 7.20036
rclavicle -1.31894e-013 7.15625e-015
rhumerus -33.1209 13.8872 -76.6012
rradius 45.8916
rwrist -2.84411
rhand -13.0458 -39.5343
rfingers 7.12502
rthumb 13.0491 -69.1061
lclavicle -1.31894e-013 7.15625e-015
lhumerus -26.0303 4.24916 82.8529
lradius 32.4468
lwrist -15.8955
lhand -27.3919 11.303
lfingers 7.12502
lthumb -0.798555 41.2813
rfemur -43.1436 7.16733 -5.65871
rtibia 56.8556
rfoot -20.7331 23.5885
rtoes -6.5777
lfemur -12.3124 17.5301 -1.49866
ltibia 59.1215
lfoot -30.0528 19.8096
ltoes -25.444
84
root -7.69348 14.7501 -36.0235 2.17445 56.6334 1.21585
lowerback 15.6702 -5.0151 -8.18322
upperback -1.14668 -7.78522 4.51825
thorax -8.27691 -3.29047 11.2886
lowerneck 9.33407 -17.7929 -17.8528
upperneck 2.97726 -26.023 18.8819
head 4.24243 -13.3095 7.20474
rclavicle 8.7664e-014 1.59028e-014
rhumerus -33.1757 13.8838 -76.6168
rradius 45.8745
rwrist -2.72463
rhand -13.0423 -39.5747
rfingers 7.12502
rthumb 13.0524 -69.1463
lclavicle 8.7664e-014 1.59028e-014
lhumerus -26.0739 4.52094 82.7145
lradius 32.1328
lwrist -16.0293
lhand -27.4597 11.3988
lfingers 7.12502
lthumb -0.864113 41.3768
rfemur -43.1678 7.18291 -5.6859
rtibia 56.8635
rfoot -20.5719 23.7123
rtoes -5.89415
lfemur -12.3086 17.5821 -1.51912
ltibia 59.1224
lfoot -29.9719 19.9698
ltoes -26.1773
85
root -7.69134 14.7483 -36.0248 2.07431 56.6095 1.06299
lowerback 15.6592 -4.99703 -8.15368
upperback -1.15074 -7.75282 4.53984
thorax -8.28375 -3.27481 11.2897
lowerneck 9.39487 -17.8004 -17.8222
upperneck 2.95124 -26.0324 18.8577
head 4.2193 -13.3174 7.20082
rclavicle -4.57205e-015 4.77083e-015
rhumerus -33.1562 13.8927 -76.6097
rradius 45.7635
rwrist -2.66517
rhand -13.014 -39.6248
rfingers 7.12502
rthumb 13.0797 -69.1947
lclavicle -4.57205e-015 4.77083e-015
lhumerus -26.0843 4.8795 82.5662
lradius 31.7599
lwrist -16.318
lhand -27.5075 11.4705
lfingers 7.12502
lthumb -0.910267 41.4483
rfemur -43.2057 7.14699 -5.58464
rtibia 56.859
rfoot -20.6029 23.7109
rtoes -6.1178
lfemur -12.3421 17.5996 -1.42607
ltibia 59.1646
lfoot -30.0314 19.8918
ltoes -26.1693
86
root -7.68842 14.7478 -36.0254 2.05008 56.5949 1.02437
lowerback 15.694 -4.99879 -8.14931
upperback -1.15348 -7.75768 4.52972
thorax -8.3073 -3.27538 11.282
lowerneck 9.33568 -17.801 -17.8236
upperneck 3.02916 -26.0344 18.8376
head 4.24972 -13.314 7.18566
rclavicle 1.89939e-013 -2.22639e-014
rhumerus -33.163 13.9446 -76.6633
rradius 45.6692
rwrist -2.56481
rhand -13.1109 -39.5415
rfingers 7.12502
rthumb 12.9863 -69.1173
lclavicle 1.89939e-013 -2.22639e-014
lhumerus -26.1842 5.10834 82.3821
lradius 31.505
lwrist -16.4266
lhand -27.6998 11.8514
lfingers 7.12502
lthumb -1.09599 41.8283
rfemur -43.2136 7.14291 -5.55782
rtibia 56.8567
rfoot -20.736 23.6093
rtoes -6.64001
lfemur -12.3491 17.6264 -1.41884
ltibia 59.1856
lfoot -29.9865 19.9909
ltoes -26.3108
87
root -7.68616 14.7471 -36.0278 1.96046 56.565 0.864693
lowerback 15.6461 -4.96393 -8.08433
upperback -1.15544 -7.69543 4.53098
thorax -8.30556 -3.24814 11.2293
lowerneck 9.45642 -17.8073 -17.7993
upperneck 2.94484 -26.0488 18.8857
head 4.21181 -13.3289 7.21087
rclavicle 1.20265e-014 -2.46493e-014
rhumerus -33.2786 13.8179 -76.6895
rradius 45.625
rwrist -2.39494
rhand -13.048 -39.4945
rfingers 7.12502
rthumb 13.0469 -69.0665
lclavicle 1.20265e-014 -2.46493e-014
lhumerus -26.2152 5.30263 82.2499
lradius 31.1879
lwrist -16.6098
lhand -27.6216 11.8153
lfingers 7.12502
lthumb -1.02041 41.7926
rfemur -43.2677 7.1569 -5.4774
rtibia 56.8433
rfoot -20.7652 23.5622
rtoes -6.80068
lfemur -12.4055 17.6806 -1.33454
ltibia 59.2345
lfoot -30.0027 19.9849
ltoes -26.2655
88
root -7.68338 14.7454 -36.0293 1.97112 56.5579 0.877236
lowerback 15.651 -4.93968 -8.08139
upperback -1.13241 -7.6643 4.50517
thorax -8.29431 -3.23533 11.1917
lowerneck 9.36306 -17.8319 -17.8069
upperneck 3.00045 -26.0798 18.8968
head 4.2515 -13.3383 7.1976
rclavicle -4.87022e-014 4.37326e-014
rhumerus -33.2954 13.735 -76.7057
rradius 45.5457
rwrist -2.23371
rhand -12.9947 -39.6016
rfingers 7.12502
rthumb 13.0983 -69.1703
lclavicle -4.87022e-014 4.37326e-014
lhumerus -26.1937 5.60632 82.1013
lradius 30.8553
lwrist -16.9078
lhand -27.7069 11.8981
lfingers 7.12502
lthumb -1.10282 41.875
rfemur -43.2752 7.12801 -5.49331
rtibia 56.864
rfoot -20.6651 23.6734
rtoes -6.34529
lfemur -12.3346 17.6074 -1.32706
ltibia 59.156
lfoot -30.2709 19.5612
ltoes -25.6714
